<?xml version="1.0" encoding="UTF-8" standalone="no"?>
<!-- Created with Inkscape (http://www.inkscape.org/) -->

<svg
   version="1.1"
   id="svg505"
   width="500.24979"
   height="428.10641"
   viewBox="0 0 500.24979 428.10641"
   sodipodi:docname="android-chrome-512x512.png"
   inkscape:version="0.0"
   xmlns:inkscape="http://www.inkscape.org/namespaces/inkscape"
   xmlns:sodipodi="http://sodipodi.sourceforge.net/DTD/sodipodi-0.dtd"
   xmlns="http://www.w3.org/2000/svg"
   xmlns:svg="http://www.w3.org/2000/svg">
  <defs
     id="defs509" />
  <sodipodi:namedview
     id="namedview507"
     pagecolor="#ffffff"
     bordercolor="#000000"
     borderopacity="0.25"
     inkscape:showpageshadow="2"
     inkscape:pageopacity="0.0"
     inkscape:pagecheckerboard="0"
     inkscape:deskcolor="#d1d1d1"
     showgrid="false"
     inkscape:zoom="1.156207"
     inkscape:cx="249.95525"
     inkscape:cy="256.44198"
     inkscape:window-width="1440"
     inkscape:window-height="847"
     inkscape:window-x="0"
     inkscape:window-y="25"
     inkscape:window-maximized="1"
     inkscape:current-layer="g511" />
  <g
     inkscape:groupmode="layer"
     inkscape:label="Image"
     id="g511"
     transform="translate(-4.8856807,-45.799755)">
    <path
       style="fill:#787878;fill-opacity:1"
       d="m 240.13174,266.9638 c -5.85877,-1.20694 -11.93179,-4.24484 -16.77747,-8.39255 l -3.99459,-3.41922 -3.42984,-6.32602 L 212.5,242.5 V 232 221.5 l 2.66329,-5.04564 2.66329,-5.04565 4.33671,-4.36003 4.33671,-4.36003 5.5,-2.59432 5.5,-2.59433 h 9.5 9.5 l 5.5,2.59433 5.5,2.59432 4.33671,4.36003 4.33671,4.36003 2.58399,5.04565 2.584,5.04564 0.45007,8.16191 0.45008,8.16192 -1.68087,5.33808 -1.68087,5.33809 -3.38969,4.6674 -3.38968,4.66741 -4.53924,3.12308 c -5.62603,3.87081 -10.73324,5.71473 -17.6901,6.38687 L 244.5,267.86369 Z"
       id="path1664" />
    <path
       style="fill:#787878;fill-opacity:1"
       d="m 301.06166,293.17273 -3.40713,-1.82726 -1.88797,-3.42274 -1.88798,-3.42273 0.42638,-4.14806 0.42639,-4.14807 3.56069,-5.86153 c 1.95838,-3.22385 4.80969,-9.45722 6.33623,-13.85194 l 2.77555,-7.9904 -0.0224,-12 -0.0224,-12 -2.66879,-8.07841 -2.66879,-8.07841 -3.98605,-6.16719 c -5.60161,-8.66679 -11.24694,-14.49827 -19.07056,-19.6994 l -6.743,-4.48274 -6.3609,-2.37854 c -3.49849,-1.3082 -9.70263,-2.93584 -13.78698,-3.61698 l -7.4261,-1.23844 -6.5739,0.67113 c -12.05239,1.23041 -21.64273,4.51701 -31.34148,10.74068 l -4.77404,3.06349 -4.01044,-0.0553 -4.01044,-0.0553 -3.3511,-2.07109 -3.3511,-2.0711 -1.10868,-2.74115 c -1.223,-3.02377 -1.52332,-5.27807 -1.28507,-9.646 l 0.1584,-2.90492 4.03821,-3.84146 4.0382,-3.84145 9.2118,-4.47147 9.21179,-4.47146 9,-2.24193 9,-2.24193 13.5,0.0353 13.5,0.0353 6.86281,1.68611 c 10.07567,2.47547 20.82357,7.03991 28.96101,12.2992 l 7.17618,4.63803 7.70186,7.48924 7.70187,7.48924 4.69019,6.99061 c 5.50487,8.20487 10.33654,19.26311 13.00138,29.75625 l 1.9047,7.5 -0.0901,15 -0.0901,15 -2.66665,8.78832 c -2.69351,8.87681 -7.76924,19.90769 -12.33478,26.80668 l -2.48603,3.75665 -3.31733,1.57417 C 311.69054,294.29162 308.90873,295 307.33327,295 h -2.86447 z"
       id="path1662" />
    <path
       style="fill:#787878;fill-opacity:1"
       d="m 335.46742,327.05175 -4.03258,-2.04561 -1.71742,-2.90736 L 328,319.19142 v -3.96583 -3.96582 l 6.47505,-9.68464 c 10.47315,-15.66454 16.255,-29.45569 19.05718,-45.45612 L 355,247.73802 354.9869,235.61901 354.9738,223.5 l -1.86511,-9 c -1.02581,-4.95 -3.43094,-13.15887 -5.34474,-18.24194 l -3.47963,-9.24193 -4.79199,-7.92685 C 323.7465,153.04272 299.46485,134.92323 270.13432,127.33285 l -9.63425,-2.49323 -12.59657,-0.55728 -12.59657,-0.55729 -8.40343,1.20534 -8.40343,1.20533 -10.46302,3.47567 -10.46301,3.47566 -7.68802,4.09634 c -4.22841,2.25299 -10.30954,6.05717 -13.51363,8.45373 -3.20409,2.39656 -7.33548,4.85568 -9.18086,5.46471 l -3.35526,1.10733 -4.37825,-1.67207 -4.37825,-1.67207 -2.03985,-3.30054 -2.03985,-3.30055 0.004,-4.38196 0.004,-4.38197 1.90604,-3.12582 1.90604,-3.12582 9.27935,-6.20685 C 179.74431,110.57648 194.59409,104.14511 213,99.862687 l 8.5,-1.977657 16.5,-0.542043 16.5,-0.542044 9.51189,1.562946 c 5.23154,0.85962 13.55654,2.727281 18.5,4.150361 l 8.98811,2.58741 11.10228,5.31902 c 41.63664,19.94779 70.66207,58.26629 77.88907,102.82684 l 1.50061,9.25248 v 14 14 l -1.53955,9.5 -1.53954,9.5 -3.40929,10.19204 c -6.06537,18.1324 -19.15876,41.08646 -26.52703,46.5046 l -2.52345,1.85557 -3.47655,0.52257 -3.47655,0.52258 z"
       id="path1660" />
    <path
       style="fill:#787878;fill-opacity:1"
       d="m 370.91245,354.71998 c -1.86082,-1.254 -3.94573,-3.3915 -4.63314,-4.75 l -1.24983,-2.46998 -0.0147,-3.81574 -0.0147,-3.81574 1.14625,-2.18426 c 0.63044,-1.20134 2.82219,-4.20926 4.87056,-6.68426 18.84131,-22.76549 31.01235,-53.42641 34.09436,-85.88948 l 1.1556,-12.17211 -1.16105,-13.47209 -1.16106,-13.47209 -2.87235,-11.37324 c -5.36849,-21.25685 -14.42361,-40.41286 -27.22207,-57.58796 l -6.30938,-8.46697 -9.20115,-9.09706 -9.20116,-9.09706 -9.31927,-6.68489 L 330.5,97.002162 319,91.096745 307.5,85.191328 296.61561,81.5557 l -10.8844,-3.635629 -11.6156,-2.019899 -11.61561,-2.0199 -15.5,0.0074 -15.5,0.0074 -11.61561,2.012487 -11.6156,2.012487 -10.8844,3.626339 L 186.5,85.172749 175,91.111256 163.5,97.049762 154,104.05497 c -5.225,3.85287 -11.40728,7.91042 -13.73841,9.01679 l -4.2384,2.01157 -3.93859,-1.06055 -3.9386,-1.06055 -2.57329,-3.05819 c -3.13246,-3.72272 -3.9974,-6.84211 -3.24646,-11.708326 L 122.89656,94.5 l 5.80172,-5.351311 c 3.19095,-2.943221 10.21465,-8.268566 15.60823,-11.8341 l 9.8065,-6.482789 12.1935,-5.884539 12.19349,-5.884539 10.62143,-3.470463 c 13.45059,-4.394863 28.74613,-7.354035 45.07789,-8.72105 L 247,45.799756 l 12.80068,1.071453 c 16.32044,1.366067 31.61799,4.324239 45.07789,8.716957 l 10.62143,3.466369 13,6.311496 13,6.311496 8.5,5.803348 C 391.10304,105.54384 417.50806,144.23297 428.49963,192.5 l 2.50496,11 1.19911,14.25 1.19911,14.25 -1.20419,14.25 -1.2042,14.25 -2.04212,9.86928 c -5.49842,26.57313 -18.03806,53.69426 -34.89702,75.47633 l -5.92436,7.65439 -2.96975,1.75 -2.96975,1.75 h -3.94783 -3.94782 z"
       id="path1658" />
    <path
       style="fill:#fb0000;fill-opacity:1"
       d="m 337.46244,367.93627 -3.03756,-0.88336 -2.82671,-2.95044 -2.82671,-2.95045 -0.4971,-4.4103 -0.49711,-4.41029 1.65992,-3.20994 1.65993,-3.20994 3.20145,-1.95203 3.20145,-1.95204 h 4 4 l 3.20145,1.95204 3.20145,1.95203 1.65993,3.20994 1.65992,3.20994 -0.49711,4.41029 -0.4971,4.4103 -2.80742,2.93032 -2.80743,2.93032 -3.55684,0.98809 c -4.00997,1.11397 -3.52803,1.11806 -7.59441,-0.0645 z"
       id="path1656" />
    <path
       style="fill:#fb0000;fill-opacity:1"
       d="m 235,383.9324 v -39.0676 l 22.75,0.32952 22.75,0.32953 5.75315,2.68444 5.75314,2.68444 5.37269,5.08126 5.37269,5.08126 2.87416,6.22238 L 308.5,373.5 v 10.5 10.5 l -2.66041,5.67515 -2.6604,5.67514 -4.0512,4.39503 -4.05119,4.39502 -5.008,2.7257 -5.00801,2.7257 -6.7804,1.43677 -6.78039,1.43676 -18.25,0.0174 L 235,423 Z m 40.26865,20.68726 c 2.52258,-0.75918 5.97928,-2.37208 7.68157,-3.58421 l 3.09506,-2.20388 2.19037,-4.16578 2.19037,-4.16579 v -6.5 -6.5 l -2.20378,-4.19207 -2.20378,-4.19207 -3.25923,-2.39811 c -1.79258,-1.31896 -4.72728,-2.97692 -6.52156,-3.68436 l -3.26234,-1.28625 -9.73766,-0.12357 L 253.5,361.5 253.23087,383.75 252.96174,406 h 8.8602 8.8602 z"
       id="path1654" />
    <path
       style="fill:#646464;fill-opacity:1"
       d="m 203,384 v -39 h 9 9 v 39 39 h -9 -9 z"
       id="path1652" />
    <path
       style="fill:#646464;fill-opacity:1"
       d="M 136.70264,422.36931 136,421.66667 V 383.33333 345 h 28 28 v 8 8 H 173.5 155 v 8 8 h 14.5 14.5 v 8.5 8.5 h -14.47254 -14.47255 l -0.27745,14.25 -0.27746,14.25 -8.54736,0.28598 -8.54735,0.28597 z"
       id="path1650" />
    <path
       style="fill:#646464;fill-opacity:1"
       d="m 64,383.9276 v -39.07241 l 20.75,0.32241 20.75,0.3224 5.11974,2.70084 5.11974,2.70084 2.7818,3.29916 c 1.52999,1.81454 3.3886,4.74721 4.13026,6.51704 l 1.34846,3.21788 -0.022,6.78212 -0.022,6.78212 -1.82106,4.00858 -1.82106,4.00857 -3.50265,2.99143 c -1.92646,1.64528 -4.29559,3.45009 -5.26474,4.01068 l -1.76208,1.01926 8.60775,14.28268 c 4.73427,7.85547 8.60776,14.49953 8.60776,14.76457 0,0.26504 -4.79971,0.35417 -10.66602,0.19806 L 105.66796,422.5 98.583982,409.77428 91.5,397.04857 86.75,397.02428 82,397 v 13 13 h -9 -9 z m 38.478,-4.1776 2.58952,-2.25 0.5757,-3.61821 0.57569,-3.61821 -1.65765,-3.49323 -1.65764,-3.49324 -2.49886,-1.13855 L 97.905894,361 H 89.952947 82 v 10.5 10.5 h 8.944236 8.944237 z"
       id="path1648" />
    <path
       style="fill:#fb0000;fill-opacity:1"
       d="M 371.66667,423.33333 371,422.66667 V 394.83333 367 h 9 9 v 4.10359 4.10359 l 3.67727,-3.22868 c 2.0225,-1.77578 5.285,-3.91042 7.25,-4.74364 l 3.57273,-1.51495 5.62563,0.0341 5.62564,0.0341 3.65156,1.73278 c 4.69859,2.22962 7.23399,5.51701 9.09927,11.79811 L 429,384.363 v 19.85743 19.85744 l -8.75,-0.28894 -8.75,-0.28893 -0.55356,-20 c -0.30445,-11 -0.64195,-20.09497 -0.75,-20.21104 -0.10804,-0.11608 -1.18129,-1.12858 -2.385,-2.25 L 405.62288,379 h -3.3611 -3.3611 l -2.93341,1.51693 -2.93342,1.51692 -1.76587,3.23308 -1.76588,3.23307 -0.33203,17.75 -0.33204,17.75 h -8.25235 c -4.53879,0 -8.55235,-0.3 -8.91901,-0.66667 z"
       id="path1646" />
    <path
       style="fill:#fb0000;fill-opacity:1"
       d="M 455.25,444.80493 450,443.84745 v -6.92372 C 450,433.11568 450.1678,430 450.37288,430 c 0.20509,0 2.56759,0.99043 5.25,2.20096 l 4.87712,2.20096 8,0.0418 8,0.0418 3.1015,-1.69169 c 1.70583,-0.93043 3.89119,-2.89691 4.85636,-4.36994 l 1.75485,-2.67825 0.52042,-6.12287 0.52041,-6.12286 -3.37677,3.13805 c -1.85722,1.72592 -4.91383,3.91354 -6.79246,4.86136 l -3.4157,1.72332 -6.22626,-0.0359 -6.22626,-0.0359 -3.85805,-1.98386 c -4.7981,-2.4672 -8.44558,-6.3343 -11.47607,-12.16698 l -2.33806,-4.5 v -10 -10 l 2.33806,-4.5 c 3.0474,-5.86523 6.6821,-9.70199 11.57321,-12.21658 l 3.95518,-2.03342 h 6.10276 6.10275 l 3.44207,1.73695 c 1.89313,0.95533 4.90456,3.12485 6.69206,4.82117 l 3.25,3.08421 V 371.19617 367 h 9.06774 9.06774 l -0.32171,29.25 -0.3217,29.25 -1.79672,4 c -3.61538,8.04888 -10.58185,13.27572 -20.49457,15.37679 L 476.90156,446 l -8.20078,-0.1188 c -4.51043,-0.0653 -10.56328,-0.54966 -13.45078,-1.07627 z m 26.31141,-36.43712 2.26901,-1.48671 1.58479,-3.96079 1.58479,-3.96078 -0.022,-4.72977 -0.022,-4.72976 -1.85119,-4.07586 -1.85118,-4.07586 -3.72408,-1.76719 -3.72407,-1.76719 -3.18724,0.59792 c -1.75298,0.32887 -4.23176,1.32955 -5.50841,2.22375 l -2.32118,1.62582 -1.39436,3.33718 -1.39437,3.33719 0.002,5.78212 0.002,5.78212 1.74844,3.5 1.74845,3.5 3.5,1.78354 3.5,1.78353 3.3962,-0.60627 c 1.86791,-0.33346 4.41725,-1.2753 5.66521,-2.09299 z"
       id="path1644" />
    <path
       style="fill:#646464;fill-opacity:1"
       d="m 30.804273,472.07808 -5.695727,-1.82806 -5.200511,-3.81753 -5.200511,-3.81752 -3.797134,-5.87491 -3.7971343,-5.8749 L 5.9994681,445.68258 4.8856805,440.5 5.1928403,296 5.5,151.5 l 2.6604071,-5.67515 2.6604069,-5.67514 4.217015,-4.57492 4.217015,-4.57492 6.59839,-3.24994 L 32.451623,124.5 68.225812,124.20289 104,123.90578 V 137.45289 151 H 72.967881 41.935763 l -3.401464,1.42122 -3.401464,1.42122 -1.566417,3.02912 L 32,159.90068 v 138.40044 138.40043 l 1.074823,3.08324 1.074823,3.08324 2.389994,1.56599 L 38.929633,446 H 180.27773 321.62582 l 2.93709,-3.06418 2.93709,-3.06418 0.30197,-31.93582 L 328.10394,376 h 13.49627 13.49626 l -0.29823,34.75 -0.29824,34.75 -3.1252,6.5 -3.1252,6.5 -4.3748,4.39153 -4.3748,4.39154 -6.5,3.10846 -6.5,3.10847 -145,0.20308 -145,0.20307 z"
       id="path1616" />
  </g>
</svg>
